<svg xmlns="http://www.w3.org/2000/svg" width="35.996" height="33.998" viewBox="0 0 35.996 33.998">
  <path id="联合_429" data-name="联合 429" d="M16412.494,17145.408a1.5,1.5,0,0,1-1.5-1.5v-10.5h-6v10.5a1.5,1.5,0,0,1-1.5,1.5h-7a1.5,1.5,0,0,1-1.5-1.5v-16.279l-2.348,2.328a1.557,1.557,0,0,1-2.2,0,1.528,1.528,0,0,1,0-2.168l16.066-15.926a2.913,2.913,0,0,1,2.961,0l16.063,15.926a1.517,1.517,0,0,1,0,2.168,1.549,1.549,0,0,1-2.186,0l-2.357-2.336v16.287a1.5,1.5,0,0,1-1.5,1.5Zm5.5-3v-17.5a1.7,1.7,0,0,1,.02-.246l-10.016-9.926-10.021,9.936a1.565,1.565,0,0,1,.018.236v17.5h4v-10.5a1.5,1.5,0,0,1,1.5-1.5h9a1.5,1.5,0,0,1,1.5,1.5v10.5Z" transform="translate(-16390 -17111.41)" fill="#fff"/>
</svg>
