<?xml version="1.0" standalone="no"?><!DOCTYPE svg PUBLIC "-//W3C//DTD SVG 1.1//EN" "http://www.w3.org/Graphics/SVG/1.1/DTD/svg11.dtd"><svg t="1681097902044" class="icon" viewBox="0 0 1024 1024" version="1.1" xmlns="http://www.w3.org/2000/svg" p-id="6151" xmlns:xlink="http://www.w3.org/1999/xlink" width="200" height="200"><path d="M0 0m113.777778 0l796.444444 0q113.777778 0 113.777778 113.777778l0 796.444444q0 113.777778-113.777778 113.777778l-796.444444 0q-113.777778 0-113.777778-113.777778l0-796.444444q0-113.777778 113.777778-113.777778Z" fill="#B5E0E8" p-id="6152"></path><path d="M718.354963 507.259259a685.093926 685.093926 0 0 1-11.377778-70.656c-1.327407-15.17037-1.592889-30.340741-5.461333-44.980148-6.561185-24.689778-21.238519-43.652741-23.134815-69.518222-1.820444-24.689778-20.517926-33.640296-39.936-46.345482-20.252444-13.274074-44.676741-24.651852-69.101037-26.548148-46.459259-3.792593-85.978074 32.616296-131.109926 44.41126-18.962963 4.968296-39.708444 5.688889-56.888889 15.625481-12.591407 7.585185-22.755556 18.394074-35.081481 26.055111-11.377778 6.97837-17.749333 8.571259-21.88326 21.617778a226.948741 226.948741 0 0 0-9.595259 52.337778c-4.589037 68.266667-3.792593 137.178074-5.802666 205.520592q-0.796444 24.462222-1.289482 48.886519c0 5.12 2.389333 44.411259-0.758518 46.042074 37.470815-19.418074 82.10963-16.156444 124.207407-13.274074q68.266667 4.664889 136.533333 6.447407c15.966815 0.417185 31.857778 2.010074 47.824593 2.275556 11.643259 0 25.182815-3.109926 36.636444-0.948148 9.860741 1.896296 12.894815 8.798815 20.821334 13.691259 9.102222 5.613037 26.548148 6.637037 36.636444 3.792592 9.481481-2.503111 13.994667-1.782519 23.627852-0.910222a10.922667 10.922667 0 0 0 10.126222-3.792592 13.653333 13.653333 0 0 0 1.137778-9.367704c-5.461333-45.89037-13.539556-91.022222-16.687407-136.988445a1236.385185 1236.385185 0 0 0-36.560593-223.232c-2.616889-10.164148-5.461333-20.593778-11.984593-28.785777s-17.711407-13.653333-27.648-10.353778" fill="#5C3025" p-id="6153"></path><path d="M638.103704 765.534815c0.455111-23.703704-10.202074-48.583111-15.170371-71.604148-3.413333-15.17037-4.361481-30.72-8.533333-45.700741a110.933333 110.933333 0 0 0-8.00237-17.180445c-3.26163-7.168-3.337481-17.028741-4.589037-24.803555-1.061926-6.409481 0.530963-13.463704-2.313482-19.456a35.346963 35.346963 0 0 0-27.306667-20.745482c-35.84-5.195852-77.065481-15.17037-112.526222-3.072a68.835556 68.835556 0 0 0-32.540444 26.548149c-4.133926 6.068148-4.28563 14.032593-5.499259 21.086814-2.275556 13.274074-5.992296 26.548148-7.319704 40.049778a295.822222 295.822222 0 0 1-6.447408 41.718519 129.592889 129.592889 0 0 0-5.688888 29.051259v1.630815a37.129481 37.129481 0 0 0 9.02637 25.827555c13.236148 13.842963 40.96 14.336 57.988741 21.731556 23.817481 10.391704 50.896593 10.467556 76.837926 12.288 22.869333 1.744593 91.32563 19.64563 92.084148-17.370074z" fill="#F5C09D" p-id="6154"></path><path d="M384.379259 521.443556c15.17037 50.062222 50.744889 107.064889 100.200297 128.948148 60.681481 26.81363 110.554074-22.755556 139.07437-72.400593 29.999407-51.958519 32.919704-125.421037 25.296593-183.713185-5.499259-42.097778-19.380148-86.698667-54.272-111.009185-24.462222-17.142519-56.13037-21.579852-85.788445-17.218371s-57.306074 16.725333-83.626667 30.871704c-24.917333 13.349926-40.656593 41.187556-47.521185 68.911407a155.496296 155.496296 0 0 0-3.527111 35.346963c-0.568889 37.281185-1.251556 82.185481 10.164148 120.263112z" fill="#FCD6BD" p-id="6155"></path><path d="M348.197926 465.995852c13.539556 26.927407 32.047407 50.820741 45.966222 27.799704 7.964444-13.160296 2.199704-31.364741-2.427259-44.562963-4.096-11.605333-5.30963-29.127111-12.325926-39.025778-11.908741-16.877037-54.044444-18.962963-49.000296 9.709037a235.140741 235.140741 0 0 0 17.787259 46.08zM681.566815 465.995852c-13.50163 26.927407-32.047407 50.820741-45.966222 27.799704-7.964444-13.160296-2.199704-31.364741 2.465185-44.562963 4.058074-11.605333 5.30963-29.127111 12.288-39.025778 11.946667-16.877037 54.044444-18.962963 49.000296 9.709037a232.561778 232.561778 0 0 1-17.787259 46.08z" fill="#FCD6BD" p-id="6156"></path><path d="M688.924444 325.480296a86.622815 86.622815 0 0 1 0.834371 22.755556c-0.986074 8.419556-7.016296 15.435852-9.860741 23.324444a83.437037 83.437037 0 0 1-14.715259 27.799704q-1.934222 2.313481-3.792593 4.778667c-5.688889 8.078222-9.443556 16.877037-14.715259 25.486222 0.758519-36.105481-17.787259-68.077037-36.02963-97.962667-11.112296-18.204444-24.082963-35.764148-29.733926-56.32-11.643259 13.767111-31.364741 28.937481-46.155851 39.442963a785.483852 785.483852 0 0 1-96.786963 58.292148c-24.538074 12.47763-67.659852 20.821333-67.166815 55.67526A49.607111 49.607111 0 0 0 348.918519 400.877037a39.177481 39.177481 0 0 0-21.390223-4.437333c-5.840593 0-7.585185 2.389333-9.102222-6.257778a64.246519 64.246519 0 0 1 0.948148-18.052741A247.770074 247.770074 0 0 1 337.540741 302.421333c18.659556-44.297481 50.403556-83.892148 92.539259-107.709629a157.658074 157.658074 0 0 1 77.027556-20.48c15.928889 0 30.340741 0.265481 46.004148 5.157926a73.424593 73.424593 0 0 1 30.34074 19.949037 6.181926 6.181926 0 0 0 2.465186 2.085926 5.650963 5.650963 0 0 0 3.072 0 59.429926 59.429926 0 0 1 37.091555 5.271703c64.018963 34.133333 77.217185 137.367704 77.672296 201.879704A383.279407 383.279407 0 0 1 672.085333 333.748148" fill="#5C3025" p-id="6157"></path><path d="M391.130074 745.775407h220.99437V1024h-220.99437z" fill="#E3E3E3" p-id="6158"></path><path d="M296.315259 703.488c11.377778-3.982222 20.973037-10.088296 31.706074-15.17037 8.874667-4.096 17.294222-5.95437 26.168889-10.998519a29.430519 29.430519 0 0 1 18.962963-4.778667 5.423407 5.423407 0 0 1 2.541037 1.061926 6.219852 6.219852 0 0 1 1.630815 4.171852l3.413333 28.672 69.176889 283.685926c4.020148 10.467556 16.57363 21.541926 16.080593 33.716148H114.650074c6.637037-57.306074 12.932741-114.763852 17.408-172.411259 2.730667-34.702222 5.726815-72.666074 29.771852-97.848889 17.863111-18.697481 44.032-26.548148 69.101037-32.957629 21.390222-5.30963 44.183704-9.633185 65.384296-17.142519z" fill="#35658F" p-id="6159"></path><path d="M420.408889 617.092741a135.509333 135.509333 0 0 0 36.636444 92.880592 133.157926 133.157926 0 0 0 40.770371 30.340741c3.792593 1.706667 15.17037 2.465185 12.325926 8.798815a11.377778 11.377778 0 0 1-4.28563 4.361481c-11.377778 8.040296-18.962963 19.493926-26.548148 30.947556-7.585185 12.136296-16.725333 23.058963-24.538074 35.081481a13.463704 13.463704 0 0 1-7.054222 6.561186c-5.157926 1.289481-4.816593-3.147852-6.030223-5.802667a100.617481 100.617481 0 0 0-7.585185-13.084445l-18.962963-28.672c-11.112296-16.687407-22.33837-33.60237-28.709926-52.565333s-7.585185-40.618667 1.630815-58.481778c8.229926-16.346074 24.045037-28.178963 30.833778-45.169777" fill="#FFFFFF" p-id="6160"></path><path d="M603.287704 617.092741a137.746963 137.746963 0 0 1-71.831704 120.263111c-5.726815 3.072-12.932741 3.26163-18.318222 7.092148-8.722963 6.257778 7.395556 11.377778 11.719111 14.942815 21.048889 17.142519 34.133333 40.239407 46.762667 64.056889 1.061926 2.010074 3.792593 3.792593 5.499259 2.389333a5.461333 5.461333 0 0 0 1.289481-1.630815 178.024296 178.024296 0 0 1 13.387852-22.300444c5.95437-7.585185 11.757037-15.54963 17.066667-23.514074 11.112296-16.687407 22.33837-33.60237 28.709926-52.565334s7.585185-40.618667-1.630815-58.481777c-8.229926-16.346074-24.045037-28.178963-30.795852-45.169778" fill="#FFFFFF" p-id="6161"></path><path d="M463.189333 996.617481q-6.409481-30.340741-11.946666-60.681481c-15.17037-81.957926-25.6-164.67437-34.133334-247.542519-2.010074-19.949037 0.568889-40.201481-1.479111-59.922962 0-0.606815 0-0.682667-0.493037-0.986075-1.403259-0.872296-17.256296 15.17037-19.531852 16.990815-8.229926 6.97837-17.256296 13.008593-25.979259 19.342222a408.120889 408.120889 0 0 0-61.970963 56.016593c-3.792593 4.171852-4.740741 7.130074-4.020148 9.443556 1.289481 4.171852 8.040296 6.144 14.336 8.760889 5.006222 2.123852 9.671111 5.726815 14.487704 8.267851 3.792593 2.010074 28.027259 15.890963 31.326814 13.349926a212.764444 212.764444 0 0 1-66.825481 34.133334c10.808889 65.308444 67.128889 160.768 88.481185 230.21037h85.447111c-2.768593-10.012444-6.106074-19.797333-7.698963-27.382519z" fill="#1E507D" p-id="6162"></path><path d="M724.005926 703.488c-11.377778-3.982222-21.010963-10.088296-31.706074-15.17037-8.874667-4.096-17.294222-5.95437-26.206815-10.998519a29.240889 29.240889 0 0 0-18.962963-4.778667 5.764741 5.764741 0 0 0-2.578963 1.061926 6.371556 6.371556 0 0 0-1.592889 4.171852q-1.706667 14.336-3.451259 28.672l-69.138963 283.685926c-4.058074 10.467556-16.611556 21.541926-16.080593 33.716148h351.383704c-6.674963-57.306074-12.932741-114.763852-17.445926-172.411259-2.692741-34.702222-5.726815-72.666074-29.733926-97.848889-17.901037-18.697481-44.032-26.548148-69.138963-32.957629-21.352296-5.30963-44.145778-9.633185-65.34637-17.142519z" fill="#35658F" p-id="6163"></path><path d="M718.999704 728.784593c-18.280296-14.14637-33.829926-31.250963-49.569185-48.052149-16.914963-18.128593-37.546667-33.147259-56.888889-48.734814-0.986074-0.796444-3.565037-3.147852-3.792593-1.858371 0 5.157926-1.099852 9.40563-1.592889 14.070519-0.872296 8.495407-1.782519 16.952889-2.654815 25.448296-1.85837 17.445926-3.792593 34.891852-5.233777 52.375704C591.644444 811.614815 562.706963 932.370963 549.925926 1024h81.464889c18.204444-69.480296 84.043852-161.261037 95.459555-230.248296a212.764444 212.764444 0 0 1-66.825481-34.133334 209.957926 209.957926 0 0 0 58.974815-30.833777z" fill="#1E507D" p-id="6164"></path><path d="M510.596741 792.538074m-17.028741 0a17.028741 17.028741 0 1 0 34.057481 0 17.028741 17.028741 0 1 0-34.057481 0Z" fill="#FFFFFF" p-id="6165"></path></svg>