<?xml version="1.0" standalone="no"?><!DOCTYPE svg PUBLIC "-//W3C//DTD SVG 1.1//EN" "http://www.w3.org/Graphics/SVG/1.1/DTD/svg11.dtd"><svg t="1681367955064" class="icon" viewBox="0 0 1024 1024" version="1.1" xmlns="http://www.w3.org/2000/svg" p-id="2761" xmlns:xlink="http://www.w3.org/1999/xlink" width="200" height="200"><path d="M950.2 192.1c-60.7-34.4-136.4-54.8-218.7-54.8-82.4 0-158.4 20.7-219 55.1 0 0-0.1 0-0.1 0.1-60.6-34.5-136.6-55.2-218.9-55.2-82.3 0-158 20.3-218.7 54.7-6.3 3.6-10.1 10.5-10.1 17.9v650.2c0 11.8 9.4 20.3 19.8 20.3 2.9 0 5.9-0.7 8.7-2.1 57.3-28.4 126.1-44.9 200.3-44.9 73.5 0 141.9 16.5 198.9 44.4 3.6 1.7 7.1 3.5 10.5 5.3a20.39 20.39 0 0 0 19.2 0c0.1 0 0.1-0.1 0.2-0.1 0.5-0.2 0.9-0.5 1.4-0.8 3-1.5 5.9-3 8.9-4.5 57-27.8 125.4-44.4 198.9-44.4 74.2 0 143 16.5 200.3 44.9 2.9 1.4 5.8 2.1 8.7 2.1 10.4 0 19.8-8.5 19.8-20.3V210c0-7.4-3.8-14.3-10.1-17.9z m-218.7 602c-38.1 0-75.7 4.3-111.7 12.6-30.3 6.7-59.5 16.2-87.2 28.3v-35c2.8-1.4 5.5-2.9 8.5-4.2 56.8-27.7 122.7-42.3 190.4-42.3 38 0 75.3 4.5 110.9 13.4 27.9 7 54.4 16.6 78.9 28.6V831c-25.7-10.6-52.7-18.9-80.7-24.9-35.1-7.9-71.8-12-109.1-12zM103.8 831v-35.5c24.5-12 50.9-21.6 78.8-28.5 35.6-9 72.9-13.5 110.9-13.5 67.8 0 133.6 14.6 190.4 42.4 2.9 1.5 5.7 2.9 8.5 4.3V835c-29.6-13-61.1-22.9-93.8-29.7-34-7.3-69.3-11.1-105.1-11.1-33.6 0-66.7 3.3-98.6 9.7-31.7 6.1-62.3 15.2-91.1 27.1z m627.7-654.7c37 0 73.3 4.5 107.8 13.3 29.3 7.5 56.8 17.9 82 31.1V774c-55.1-25.4-120.1-40-189.8-40-73.4 0-141.8 16.5-198.9 44.4V225.9c27.6-15.6 58.2-27.7 91-36.2 34.6-8.9 70.9-13.4 107.9-13.4z m-545.7 13.3c34.4-8.9 70.7-13.3 107.7-13.3s73.3 4.5 108 13.4c32.7 8.4 63.3 20.5 90.9 36.1v552.6C435.3 750.5 366.9 734 293.5 734c-69.6 0-134.6 14.6-189.7 40V220.7c25.2-13.2 52.7-23.7 82-31.1z" p-id="2762" fill="#454D64"></path></svg>