<?xml version="1.0" standalone="no"?><!DOCTYPE svg PUBLIC "-//W3C//DTD SVG 1.1//EN" "http://www.w3.org/Graphics/SVG/1.1/DTD/svg11.dtd"><svg t="1680174176753" class="icon" viewBox="0 0 1024 1024" version="1.1" xmlns="http://www.w3.org/2000/svg" p-id="1467" xmlns:xlink="http://www.w3.org/1999/xlink" width="200" height="200"><path d="M405.76 478.72L121.6 325.12c-5.76-3.2-12.16-4.48-17.92-4.48-20.48 0-39.68 17.92-39.68 42.88v300.16c0 31.36 16 59.52 42.24 73.6l284.16 153.6c5.76 3.2 12.16 5.12 17.92 5.12 20.48 0 39.68-18.56 39.68-43.52V552.32c0-30.72-16-59.52-42.24-73.6z m-21.76 336L136.32 680.96c-3.84-2.56-8.32-8.32-8.32-17.28v-262.4l247.68 133.76c5.12 3.2 8.32 10.24 8.32 17.28v262.4z m472.32-494.08c-5.76 0-12.16 1.28-17.92 4.48L554.24 479.36C528 493.44 512 522.24 512 553.6v298.88c0 24.96 19.2 43.52 39.68 43.52 5.76 0 12.16-1.28 17.92-4.48l284.16-154.24c25.6-14.08 42.24-42.24 42.24-73.6V363.52c0-24.96-19.2-42.88-39.68-42.88zM832 663.04c0 8.96-4.48 15.36-8.32 17.28L576 814.72V553.6c0-8.96 4.48-15.36 8.32-17.28L832 401.28v261.76z m-19.84-408.32c13.44-7.04 19.84-19.2 18.56-30.72 1.28-12.16-5.12-23.68-18.56-30.72L522.88 42.24C510.08 35.2 495.36 32 480 32c-15.36 0-30.08 3.2-43.52 10.24l-289.92 150.4c-13.44 7.04-19.2 19.2-18.56 31.36-0.64 11.52 5.12 23.68 18.56 30.72l289.28 150.4c12.8 7.04 28.16 10.24 43.52 10.24h1.28c15.36 0 30.08-3.2 43.52-10.24l288-150.4z m-332.8 96.64c-5.12 0-10.24-1.28-14.08-3.2L225.92 224 465.28 99.2c3.84-1.92 8.96-3.2 14.72-3.2 5.12 0 10.24 1.28 14.08 3.2L733.44 224l-240 124.16c-3.2 1.92-8.32 3.2-14.08 3.2z" p-id="1468" fill="#0099ff"></path></svg>