<?xml version="1.0" standalone="no"?><!DOCTYPE svg PUBLIC "-//W3C//DTD SVG 1.1//EN" "http://www.w3.org/Graphics/SVG/1.1/DTD/svg11.dtd"><svg t="1681443023458" class="icon" viewBox="0 0 1064 1024" version="1.1" xmlns="http://www.w3.org/2000/svg" p-id="2587" xmlns:xlink="http://www.w3.org/1999/xlink" width="207.8125" height="200"><path d="M471.36768 34.57024c58.90048-7.45472 84.45952 57.63072 58.08128 96.17408a276.48 276.48 0 0 0 384.28672 384.28672c38.54336-26.37824 103.6288-0.8192 96.17408 58.08128C979.84512 810.06592 777.6256 993.28 532.48 993.28c-265.8304 0-481.28-215.4496-481.28-481.28C51.2 266.89536 234.41408 64.63488 471.36768 34.57024z m-69.38624 121.6512A379.0848 379.0848 0 0 0 153.6 512 378.88 378.88 0 0 0 532.48 890.88a379.0848 379.0848 0 0 0 355.81952-248.38144A378.88 378.88 0 0 1 401.98144 156.18048z" fill="#666666" p-id="2588"></path><path d="M781.02528 93.51168a19.2512 19.2512 0 0 1 35.38944 0l28.672 65.9456c7.7824 17.85856 22.07744 32.11264 39.97696 39.89504l65.9456 28.71296a19.2512 19.2512 0 0 1 0 35.38944l-65.9456 28.672c-17.89952 7.7824-32.1536 22.07744-39.936 39.936l-28.71296 65.9456a19.2512 19.2512 0 0 1-35.38944 0l-28.672-65.9456a77.16864 77.16864 0 0 0-39.97696-39.89504l-65.9456-28.71296a19.2512 19.2512 0 0 1 0-35.38944l65.9456-28.672c17.89952-7.7824 32.1536-22.07744 39.936-39.936l28.71296-65.9456z" fill="#666666" p-id="2589"></path></svg>