<?xml version="1.0" standalone="no"?><!DOCTYPE svg PUBLIC "-//W3C//DTD SVG 1.1//EN" "http://www.w3.org/Graphics/SVG/1.1/DTD/svg11.dtd"><svg t="1680774676187" class="icon" viewBox="0 0 1024 1024" version="1.1" xmlns="http://www.w3.org/2000/svg" p-id="4444" xmlns:xlink="http://www.w3.org/1999/xlink" width="200" height="200"><path d="M789.8 609.1c11.4-4.7 24.6 0 30.4 10.9 9.1 17.2 23.2 19.4 33.3 15.7 2.8-1 16.6-7 13.1-23.2-19.4-85.6-66.1-163.1-131.5-218.3-32.6-27.5-68.9-48.9-108-63.6-40.4-15.2-82.8-22.9-126-22.9-100.2 0-194.4 41.2-265.3 116.1-34.6 36.6-61.8 79.1-80.8 126.6-19.8 49.1-29.8 101.4-29.8 155.3v0.2c0 7.8 0 17.4 2.2 20.9 1 1.6 6.6 4.4 20.7 4.4 79 0 155.7 0 241.6-0.1h487.5c23.1 0 47.1 11.5 65.9 31.6 18.3 19.6 28.8 44.1 28.8 67.2v2.4c0 23.1-11.8 48-32.4 68.3-19.3 19.1-42.5 30.5-62 30.5h-777c-13.3 0-24-10.7-24-24s10.7-24 24-24h777.1c4.7 0 16.6-5.2 28.2-16.7 11.2-11 18.1-24.1 18.1-34.2v-2.4c0-22.8-25.8-50.9-46.7-50.9-150.2 0-269.7 0-372.9 0.1H378.7c-81.5 0-155 0.1-230.6 0.1-29.5 0-50.1-9.1-61.3-26.9-9.6-15.1-9.6-32.4-9.6-46.3v-0.2c0-60.1 11.2-118.3 33.1-173.2 21.3-53.1 51.7-100.8 90.6-141.7 38.9-41.1 84.2-73.3 134.7-95.9 24.8-11.1 50.3-19.5 76.3-25.4-21.2-22.2-34.2-52.2-34.2-85.2C377.7 116.3 433 61 501 61s123.3 55.3 123.3 123.3c0 33-13 63-34.2 85.2 18.2 4.1 36.2 9.5 53.9 16.1 44.2 16.7 85.2 40.8 122 71.9 36.4 30.7 67.5 67.2 92.5 108.5 25.5 42 43.9 87.7 54.8 136v0.1c7.5 34.2-10.3 66.5-43.4 78.6-16.3 6-34.1 6-50.2 0-11.2-4.2-21.1-11-29.4-20 0.2 0-25.6-35.1-0.5-51.6zM501 109c-41.5 0-75.3 33.8-75.3 75.3s33.8 75.3 75.3 75.3 75.3-33.8 75.3-75.3c0.1-41.5-33.7-75.3-75.3-75.3z" fill="#aaaaaa" p-id="4445"></path></svg>